<svg width="63" height="20" viewBox="0 0 63 20" fill="none" xmlns="http://www.w3.org/2000/svg">
<g clip-path="url(#clip0_22_4275)">
<path d="M8.40907 0.00177002H8.95396C10.8457 0.0428939 12.7065 0.803685 14.043 2.15049C13.5496 2.65426 13.0458 3.13746 12.5626 3.64123C11.8121 2.96269 10.9073 2.43836 9.92037 2.2533C8.46048 1.94487 6.88749 2.22246 5.66406 3.05521C4.32753 3.9291 3.42281 5.40955 3.22747 6.99282C3.01157 8.55553 3.45365 10.2005 4.47146 11.4136C5.44816 12.5959 6.93889 13.3362 8.48104 13.3876C9.92037 13.4698 11.4214 13.0277 12.4701 12.0202C13.2925 11.3108 13.6729 10.2313 13.7963 9.18267C12.0897 9.18267 10.383 9.19295 8.67638 9.18267V7.06479H15.8628C16.2329 9.33688 15.6983 11.8968 13.9711 13.5212C12.8196 14.6727 11.2261 15.3512 9.60166 15.4849C8.02868 15.6391 6.40428 15.341 5.00607 14.5802C3.33028 13.6857 1.99375 12.1744 1.33577 10.3958C0.718915 8.76115 0.708634 6.91057 1.28437 5.26562C1.8087 3.7646 2.81623 2.43836 4.11163 1.51307C5.35563 0.598066 6.86693 0.0942986 8.40907 0.00177002Z" fill="#3780FF"/>
<path d="M49.6357 0.536377H51.8359V15.2176C51.1059 15.2176 50.3657 15.2279 49.6357 15.2073C49.646 10.3238 49.6357 5.43011 49.6357 0.536377Z" fill="#38B137"/>
<path d="M20.7565 5.62544C22.1135 5.36842 23.5837 5.65628 24.7043 6.46848C25.7222 7.18815 26.4315 8.31905 26.6474 9.55277C26.925 10.9818 26.5755 12.5445 25.6502 13.6754C24.6529 14.94 23.0183 15.6185 21.4247 15.5157C19.9648 15.4335 18.546 14.7035 17.6824 13.5109C16.7058 12.195 16.4693 10.3855 17.0039 8.84338C17.5385 7.18815 19.0498 5.92359 20.7565 5.62544ZM21.0649 7.57882C20.5097 7.72276 19.9957 8.04147 19.6255 8.49383C18.6283 9.68642 18.69 11.6295 19.79 12.7399C20.4172 13.3773 21.363 13.6754 22.2369 13.5007C23.0491 13.3567 23.7585 12.8118 24.1492 12.0922C24.8277 10.8687 24.6324 9.18265 23.594 8.22652C22.9257 7.60967 21.949 7.35264 21.0649 7.57882Z" fill="#FA3913"/>
<path d="M31.6543 5.62546C33.2068 5.32732 34.9031 5.75912 36.0649 6.8489C37.9566 8.54526 38.1622 11.7221 36.5481 13.6755C35.5714 14.9092 33.9881 15.5877 32.4254 15.5157C30.9347 15.4746 29.4645 14.7344 28.5803 13.511C27.5831 12.1642 27.3672 10.3136 27.9326 8.7406C28.4981 7.13677 29.9786 5.91333 31.6543 5.62546ZM31.9628 7.57885C31.4076 7.72278 30.8936 8.04149 30.5234 8.48357C29.5365 9.6556 29.5776 11.5679 30.6365 12.6885C31.2637 13.3567 32.2404 13.6857 33.1451 13.5007C33.947 13.3465 34.6667 12.8119 35.0573 12.0922C35.7256 10.8585 35.5303 9.1724 34.4816 8.21627C33.8133 7.59941 32.8367 7.35267 31.9628 7.57885Z" fill="#FCBD06"/>
<path d="M40.8968 6.22174C42.0791 5.48152 43.6521 5.2759 44.9269 5.91332C45.3279 6.08809 45.6569 6.38624 45.9756 6.68439C45.9859 6.4068 45.9756 6.11893 45.9859 5.83107C46.6747 5.84135 47.3635 5.83107 48.0626 5.84135V14.9092C48.0523 16.2765 47.7028 17.7261 46.7158 18.7234C45.6363 19.8235 43.9811 20.1627 42.4903 19.9365C40.8968 19.7001 39.5089 18.5383 38.892 17.0682C39.5089 16.77 40.1566 16.5335 40.794 16.256C41.1538 17.099 41.8838 17.8187 42.7988 17.9832C43.7138 18.1477 44.7727 17.9215 45.369 17.1607C46.0064 16.3793 46.0064 15.3101 45.9756 14.354C45.5027 14.8166 44.9578 15.2279 44.2998 15.3821C42.8707 15.783 41.2977 15.2896 40.1977 14.3231C39.0873 13.3567 38.4294 11.866 38.491 10.3855C38.5219 8.70974 39.4677 7.09563 40.8968 6.22174ZM43.025 7.53771C42.3978 7.64052 41.8118 7.99007 41.4108 8.47327C40.4444 9.62474 40.4444 11.465 41.4211 12.5959C41.9763 13.2642 42.8707 13.6343 43.7343 13.5418C44.5465 13.4595 45.297 12.9455 45.698 12.2361C46.3765 11.0332 46.2635 9.39856 45.3484 8.3499C44.783 7.7022 43.8783 7.38349 43.025 7.53771Z" fill="#3780FF"/>
<path d="M54.478 6.74608C55.7117 5.59461 57.6137 5.20394 59.197 5.81051C60.698 6.37597 61.6541 7.80502 62.1373 9.2752C59.9063 10.2005 57.6857 11.1155 55.4547 12.0408C55.7631 12.6268 56.236 13.1614 56.8735 13.3773C57.7679 13.696 58.8371 13.5829 59.5876 12.9866C59.8858 12.7604 60.1222 12.4623 60.3484 12.1744C60.9139 12.5548 61.4793 12.9249 62.0448 13.3053C61.2429 14.5082 59.8961 15.3512 58.4464 15.4849C56.8426 15.6802 55.136 15.0634 54.0976 13.8091C52.391 11.8352 52.5555 8.52469 54.478 6.74608ZM55.5781 8.64806C55.2285 9.15183 55.0846 9.76868 55.0949 10.3753C56.5856 9.7584 58.0763 9.14155 59.5671 8.51441C59.3203 7.93867 58.724 7.58912 58.1175 7.49659C57.1408 7.32182 56.1229 7.84614 55.5781 8.64806Z" fill="#FA3913"/>
</g>
<defs>
<clipPath id="clip0_22_4275">
<rect width="61.2745" height="20" fill="white" transform="translate(0.862793)"/>
</clipPath>
</defs>
</svg>
